<?xml version="1.0" encoding="utf-8"?>
<!-- Generator: Adobe Illustrator 18.0.0, SVG Export Plug-In . SVG Version: 6.00 Build 0)  -->
<!DOCTYPE svg PUBLIC "-//W3C//DTD SVG 1.1//EN" "http://www.w3.org/Graphics/SVG/1.1/DTD/svg11.dtd">
<svg version="1.1" id="Layer_1" xmlns="http://www.w3.org/2000/svg" xmlns:xlink="http://www.w3.org/1999/xlink" x="0px" y="0px"
	 viewBox="0 0 850 850" enable-background="new 0 0 850 850" xml:space="preserve">
<g>
	<path fill="#FFFFFF" d="M850,425c0-57.4-11.2-113-33.4-165.4c-21.4-50.6-52-96.1-91.1-135.1c-39-39-84.5-69.7-135.1-91.1
		c-3.1-1.3-6.1-2.6-9.2-3.8c0.1-0.4,0.2-0.8,0.2-1.2c0-2.2-1.8-4-4-4c-1.6,0-3,1-3.6,2.3C526.3,9,476.3,0,425,0
		c-57.4,0-113,11.2-165.4,33.4c-50.6,21.4-96.1,52-135.1,91.1c-12.1,12.1-23.4,24.8-33.8,38.1c-0.6-0.3-1.3-0.5-2-0.5
		c-2.2,0-4,1.8-4,4c0,1.1,0.4,2.1,1.2,2.8c-21.1,27.9-38.7,58.2-52.4,90.7C11.2,312,0,367.6,0,425c0,57.4,11.2,113,33.4,165.4
		c21.4,50.6,52,96.1,91.1,135.1c11.4,11.4,23.4,22.1,35.8,32c-0.1,0.4-0.2,0.7-0.2,1.1c0,2.2,1.8,4,4,4c0.7,0,1.4-0.2,2-0.6
		c28.6,22,59.9,40.3,93.4,54.5C312,838.8,367.6,850,425,850c57.4,0,113-11.2,165.4-33.4c50.6-21.4,96.1-52,135.1-91.1
		c30.7-30.7,56.3-65.5,76.2-103.6c0.3,0.1,0.7,0.2,1.1,0.2c2.2,0,4-1.8,4-4c0-1.3-0.6-2.4-1.5-3.1c4-8,7.8-16.2,11.3-24.6
		C838.8,538,850,482.4,850,425z M804.4,614.5c-0.5-0.2-1-0.4-1.6-0.4c-2.2,0-4,1.8-4,4c0,1.5,0.8,2.7,2,3.4
		c-19.9,38-45.3,72.6-76,103.3c-38.9,38.9-84.3,69.5-134.8,90.9C537.8,837.8,482.2,849,425,849s-112.8-11.2-165-33.3
		c-33.4-14.1-64.5-32.3-93-54.2c0.7-0.7,1.1-1.7,1.1-2.8c0-2.2-1.8-4-4-4c-1.4,0-2.7,0.8-3.4,1.9c-12.4-9.9-24.2-20.5-35.5-31.8
		C86.2,685.9,55.7,640.5,34.3,590C12.2,537.8,1,482.2,1,425c0-57.2,11.2-112.8,33.3-165c13.7-32.4,31.2-62.7,52.3-90.5
		c0.6,0.4,1.3,0.6,2,0.6c2.2,0,4-1.8,4-4c0-1.1-0.5-2.1-1.2-2.9c10.4-13.3,21.7-25.9,33.8-38c38.9-38.9,84.3-69.5,134.8-90.9
		C312.2,12.2,367.8,1,425,1c51.2,0,101.1,9,148.5,26.7c0,0.2-0.1,0.5-0.1,0.7c0,2.2,1.8,4,4,4c1.4,0,2.7-0.8,3.4-1.9
		c3.1,1.2,6.2,2.5,9.2,3.8c50.5,21.4,95.8,51.9,134.8,90.9c38.9,38.9,69.5,84.3,90.9,134.8c22.1,52.3,33.3,107.8,33.3,165
		c0,57.2-11.2,112.8-33.3,165C812.2,598.3,808.4,606.5,804.4,614.5z"/>
	<path fill="#FFFFFF" d="M679.6,170.4c-33.1-33.1-71.6-59-114.5-77.2C520.8,74.4,473.6,64.9,425,64.9s-95.8,9.5-140.2,28.3
		c-13.7,5.8-26.9,12.4-39.7,19.8c-0.7-0.8-1.7-1.2-2.9-1.2c-2.2,0-4,1.8-4,4c0,0.4,0.1,0.8,0.2,1.2c-24.6,14.9-47.4,32.8-68.1,53.5
		c-33.1,33.1-59,71.6-77.2,114.5C74.4,329.2,64.9,376.4,64.9,425c0,36.1,5.3,71.4,15.6,105.3c-1.1,0.7-1.9,2-1.9,3.4
		c0,2.2,1.8,4,4,4c0.1,0,0.2,0,0.3,0c3.1,9.3,6.5,18.4,10.3,27.5c18.1,42.9,44.1,81.4,77.2,114.5c33.1,33.1,71.6,59,114.5,77.2
		c44.4,18.8,91.5,28.3,140.2,28.3s95.8-9.5,140.2-28.3c12.9-5.4,25.3-11.6,37.4-18.4c0.7,0.8,1.8,1.4,3,1.4c2.2,0,4-1.8,4-4
		c0-0.5-0.1-0.9-0.2-1.3c25.5-15.2,49-33.5,70.3-54.8c33.1-33.1,59-71.6,77.2-114.5c18.8-44.4,28.3-91.5,28.3-140.2
		s-9.5-95.8-28.3-140.2C738.6,242,712.7,203.5,679.6,170.4z M755.9,564.8c-18.1,42.8-44,81.2-77,114.1
		c-21.2,21.2-44.7,39.5-70.1,54.6c-0.7-1.1-1.9-1.8-3.3-1.8c-2.2,0-4,1.8-4,4c0,0.6,0.2,1.2,0.4,1.8c-12,6.8-24.4,12.9-37.2,18.3
		c-44.3,18.7-91.3,28.2-139.8,28.2s-95.5-9.5-139.8-28.2c-42.8-18.1-81.2-44-114.1-77c-33-33-58.9-71.4-77-114.1
		c-3.8-9-7.2-18.1-10.2-27.3c1.6-0.5,2.7-2,2.7-3.8c0-2.2-1.8-4-4-4c-0.4,0-0.8,0.1-1.2,0.2C71.2,496.1,65.9,461,65.9,425
		c0-48.5,9.5-95.5,28.2-139.8c18.1-42.8,44-81.2,77-114.1c20.6-20.6,43.2-38.4,67.8-53.3c0.7,1.1,2,1.9,3.4,1.9c2.2,0,4-1.8,4-4
		c0-0.7-0.2-1.4-0.5-1.9c12.7-7.3,25.9-13.9,39.5-19.7c44.3-18.7,91.3-28.2,139.8-28.2s95.5,9.5,139.8,28.2
		c42.8,18.1,81.2,44,114.1,77c33,33,58.9,71.4,77,114.1c18.7,44.3,28.2,91.3,28.2,139.8C784.1,473.5,774.6,520.5,755.9,564.8z"/>
	<path fill="#FFFFFF" d="M425,129.8c-78.8,0-153,30.7-208.7,86.4C160.5,272,129.8,346.2,129.8,425s30.7,153,86.4,208.7
		c24.1,24.1,51.7,43.6,81.7,57.9c-0.1,0.4-0.2,0.8-0.2,1.3c0,2.2,1.8,4,4,4c1.4,0,2.7-0.8,3.4-1.9c37.2,16.6,77.9,25.3,119.9,25.3
		c78.8,0,153-30.7,208.7-86.4c55.7-55.7,86.4-129.9,86.4-208.7s-30.7-153-86.4-208.7C578,160.5,503.8,129.8,425,129.8z M633,633
		c-55.6,55.6-129.4,86.2-208,86.2c-41.8,0-82.3-8.7-119.5-25.2c0.1-0.4,0.2-0.7,0.2-1.1c0-2.2-1.8-4-4-4c-1.4,0-2.6,0.7-3.4,1.8
		c-29.8-14.2-57.3-33.6-81.4-57.7c-55.6-55.6-86.2-129.4-86.2-208c0-78.6,30.6-152.4,86.2-208c55.6-55.6,129.4-86.2,208-86.2
		c78.6,0,152.4,30.6,208,86.2c55.6,55.6,86.2,129.4,86.2,208C719.2,503.6,688.6,577.4,633,633z"/>
	<path fill="#FFFFFF" d="M425,194.8c-61.5,0-119.3,23.9-162.8,67.4c-43.5,43.5-67.4,101.3-67.4,162.8c0,51.8,17,101,48.4,141.3
		c-0.6,0.7-0.9,1.5-0.9,2.5c0,2.2,1.8,4,4,4c0.7,0,1.3-0.2,1.8-0.5c4.5,5.3,9.2,10.5,14.1,15.5c43.5,43.5,101.3,67.4,162.8,67.4
		c61.5,0,119.3-23.9,162.8-67.4c43.5-43.5,67.4-101.3,67.4-162.8c0-61.5-23.9-119.3-67.4-162.8C544.3,218.7,486.5,194.8,425,194.8z
		 M587.1,587.1c-43.3,43.3-100.9,67.1-162.1,67.1s-118.8-23.8-162.1-67.1c-4.9-4.9-9.6-10.1-14-15.4c0.8-0.7,1.4-1.8,1.4-3
		c0-2.2-1.8-4-4-4c-0.9,0-1.7,0.3-2.4,0.8c-31.2-40-48.1-89-48.1-140.6c0-61.2,23.8-118.8,67.1-162.1
		c43.3-43.3,100.9-67.1,162.1-67.1s118.8,23.8,162.1,67.1c43.3,43.3,67.1,100.9,67.1,162.1S630.4,543.8,587.1,587.1z"/>
	<path fill="#FFFFFF" d="M425,259.7c-91.1,0-165.3,74.2-165.3,165.3S333.9,590.3,425,590.3S590.3,516.1,590.3,425
		S516.1,259.7,425,259.7z M425,589.3c-90.6,0-164.3-73.7-164.3-164.3c0-90.6,73.7-164.3,164.3-164.3c90.6,0,164.3,73.7,164.3,164.3
		C589.3,515.6,515.6,589.3,425,589.3z"/>
	<path fill="#FFFFFF" d="M425,324.6c-53.4,0-97.2,42-100.2,94.6c-2,0.2-3.7,1.9-3.7,4c0,2,1.5,3.7,3.5,3.9
		c1.2,54.4,45.7,98.2,100.4,98.2c55.4,0,100.4-45,100.4-100.4S480.4,324.6,425,324.6z M425,524.4c-54.1,0-98.2-43.4-99.4-97.2
		c2-0.3,3.5-1.9,3.5-3.9c0-2-1.4-3.6-3.3-3.9c3-52.2,46.3-93.7,99.2-93.7c54.8,0,99.4,44.6,99.4,99.4
		C524.4,479.8,479.8,524.4,425,524.4z"/>
</g>
</svg>
