<?xml version="1.0" encoding="utf-8"?>
<!-- Generator: Adobe Illustrator 18.0.0, SVG Export Plug-In . SVG Version: 6.00 Build 0)  -->
<!DOCTYPE svg PUBLIC "-//W3C//DTD SVG 1.1//EN" "http://www.w3.org/Graphics/SVG/1.1/DTD/svg11.dtd">
<svg version="1.1" id="Layer_1" xmlns="http://www.w3.org/2000/svg" xmlns:xlink="http://www.w3.org/1999/xlink" x="0px" y="0px"
	 viewBox="0 357.8 612 76.5" enable-background="new 0 357.8 612 76.5" xml:space="preserve">
<path fill="#FFFFFF" d="M306,396c0-20.4,17.9-38.2,38.2-38.2l0,0c20.4,0,38.2,17.9,38.2,38.2l0,0c0,20.4-17.9,38.2-38.2,38.2l0,0
	C323.9,434.2,306,416.4,306,396z"/>
<path fill="#FFFFFF" d="M0,396c0-20.4,17.8-38.2,38.2-38.2l0,0c20.4,0,38.2,17.9,38.2,38.2l0,0c0,20.4-17.8,38.2-38.2,38.2l0,0
	C17.8,434.2,0,416.4,0,396z"/>
</svg>
