<?xml version="1.0" encoding="utf-8"?>
<!-- Generator: Adobe Illustrator 18.0.0, SVG Export Plug-In . SVG Version: 6.00 Build 0)  -->
<!DOCTYPE svg PUBLIC "-//W3C//DTD SVG 1.1//EN" "http://www.w3.org/Graphics/SVG/1.1/DTD/svg11.dtd">
<svg version="1.1" id="Layer_1" xmlns="http://www.w3.org/2000/svg" xmlns:xlink="http://www.w3.org/1999/xlink" x="0px" y="0px"
	 viewBox="0 0 33 27" enable-background="new 0 0 33 27" xml:space="preserve">
<g>
	<path fill="#FFFFFF" d="M14.7,3c-1.6,0.9-2.8,1.7-3.8,2.3C9.9,6,9,6.8,8,7.9c-0.9,1-1.6,2-2.1,3.1c-0.5,1.1-0.8,2.5-1,4.2h2.4
		c2,0,3.7,0.5,4.8,1.5c1.2,1,1.8,2.5,1.8,4.5c0,1.4-0.5,2.7-1.6,3.9c-1,1.2-2.5,1.8-4.3,1.8c-2.8,0-4.9-0.9-6.1-2.8
		C0.6,22.3,0,19.8,0,16.8c0-2.2,0.5-4.1,1.4-5.9c0.9-1.8,2-3.4,3.4-4.8c1.4-1.4,2.8-2.6,4.3-3.6c1.5-1,2.8-1.8,3.8-2.4L14.7,3z
		 M33,3c-1.6,0.9-2.8,1.7-3.8,2.3c-1,0.6-1.9,1.5-2.9,2.6c-1,1-1.7,2.1-2.2,3.2c-0.5,1.1-0.8,2.5-1,4.2h2.4c2,0,3.7,0.5,4.8,1.5
		c1.2,1,1.8,2.5,1.8,4.5c0,1.4-0.5,2.7-1.6,3.9c-1,1.2-2.5,1.8-4.3,1.8c-2.8,0-4.9-0.9-6.1-2.8c-1.2-1.9-1.8-4.4-1.8-7.4
		c0-2.2,0.5-4.1,1.4-5.9c0.9-1.8,2-3.4,3.4-4.8c1.4-1.4,2.8-2.6,4.3-3.6c1.5-1,2.8-1.8,3.8-2.4L33,3z"/>
</g>
</svg>
