<?xml version="1.0" encoding="utf-8"?>
<!-- Generator: Adobe Illustrator 18.0.0, SVG Export Plug-In . SVG Version: 6.00 Build 0)  -->
<!DOCTYPE svg PUBLIC "-//W3C//DTD SVG 1.1//EN" "http://www.w3.org/Graphics/SVG/1.1/DTD/svg11.dtd">
<svg version="1.1" id="Layer_1" xmlns="http://www.w3.org/2000/svg" xmlns:xlink="http://www.w3.org/1999/xlink" x="0px" y="0px"
	 viewBox="0 0 534 128" enable-background="new 0 0 534 128" xml:space="preserve">
<g>
	<g>
		<path fill="#FFFFFF" d="M55.8,128C25,128,0,102.9,0,72.1V8.7c0-4.4,3.6-8.1,8-8.1c4.4,0,8,3.6,8,8.1l-0.1,62.1
			c0,22,17.9,40,39.9,40s39.9-17.9,39.9-40V8.7c0-1.9-1.5-3.4-3.4-3.4c-1.9,0-3.4,1.5-3.4,3.4v63.1c0,18-14.6,32.6-32.5,32.6
			S23.8,89.8,23.8,71.8V8.7c0-4.4,3.6-8.1,8-8.1s8,3.6,8,8.1v62.4c0,9.1,7.4,16.6,16.5,16.6c9.1,0,16.5-7.4,16.5-16.6V3
			c0-1.3,1-2.3,2.3-2.3c1.3,0,2.3,1,2.3,2.3v68.1c0,11.7-9.5,21.2-21.2,21.2c-11.7,0-21.2-9.5-21.2-21.2V8.7c0-1.9-1.5-3.4-3.4-3.4
			c-1.9,0-3.4,1.5-3.4,3.4v63.1c0,15.4,12.5,28,27.9,28c15.4,0,27.9-12.5,27.9-28V8.7c0-4.4,3.6-8.1,8-8.1c4.4,0,8,3.6,8,8.1v62.1
			c0,24.6-20,44.6-44.5,44.6c-24.5,0-44.5-20-44.5-44.6l0.1-62.1c0-1.9-1.5-3.4-3.4-3.4c-1.9,0-3.4,1.5-3.4,3.4v63.4
			c0,28.3,22.9,51.3,51.1,51.3c28.2,0,51.1-23,51.1-51.3V2.3c0-1.3,1-2.3,2.3-2.3c1.3,0,2.3,1,2.3,2.3v69.8
			C111.6,102.9,86.5,128,55.8,128z"/>
	</g>
	<g>
		<g>
			<g>
				<g>
					<g>
						<path fill="#FFFFFF" d="M290.2,93.2c-7.5,0-11.2-5.5-11.2-11c0-13,19-12.3,20.9-12.5c1-5-1.2-7.9-6-7.5
							c-3.8,0.2-7.6,1.2-11.7,1.9c-0.2-1.7-0.5-3.9-0.8-6.2c0,0,6.9-3.3,14.5-3.3c8.3,0,13.9,3.6,13.9,10.6
							c0.3,4.4,0.3,15.6,0.3,16.8c0,4.4,4.6,4.4,5.1,4.5c-0.1,2-0.2,3.8-0.3,5.6c-1.7,0.7-3.4,1-5,1c-3.4,0-6.4-1.4-8.4-4.1
							C300.5,89.5,295.5,93.2,290.2,93.2z M300.2,76.2c-3.3,0-6.4,0-9.3,1.4c-1.9,0.9-2.9,2.5-2.7,4.2c0.2,1.8,1.5,3.1,3.8,3.5
							c3.1,0.6,5.7-0.5,8.2-2.1C300.2,81,300.2,78.8,300.2,76.2z"/>
						<path fill="#FFFFFF" d="M152.4,39.9c3.7,0,7.1,0,10.7,0c0,1,0,18.6,0,26.4c0,2.1,0.2,4.3,0.4,6.4c0.8,8.6,6.6,11.5,14.1,10.8
							c5.5-0.5,8.7-4,9.4-9.8c0.3-2.3,0.4-4.6,0.4-6.9c0-7.9,0-25.6,0-26.7c3.5,0,6.7,0,10.1,0c0.1,0.4,0.2,20.6,0.1,30.3
							c-0.1,2.8-0.5,5.7-1.3,8.4c-2.4,8.4-8.6,12.5-16.8,13.8c-4.6,0.7-9.2,0.5-13.7-0.9C158.2,89.2,154,84,153,76
							c-0.4-3-0.5-6-0.5-9C152.4,58.8,152.4,40.9,152.4,39.9z"/>
						<path fill="#FFFFFF" d="M236.9,90.6c0-18.5,0-36.6,0-54.9c3.5-0.3,6.7-0.6,10.2-0.8c0,8,0,15.6,0,23.8c2.9-2.8,6-4.3,9.7-4.5
							c7.3-0.3,16.5,4.7,16.5,18.4c0,11.9-7.3,20.4-21.6,20.4C246.6,92.9,241.7,92,236.9,90.6z M247.2,65.4c0,3.3,0,6.3,0,9.3
							c0,3.1,0,6.2,0,9.6c2.3,0.3,4.4,0.7,6.4,0.7c4.3-0.1,7.3-2.5,8.5-6.7c0.9-3,0.8-6.1,0.1-9.2c-1.5-6-6.5-8.4-12-5.6
							C249.1,64,248.2,64.7,247.2,65.4z"/>
						<path fill="#FFFFFF" d="M355.6,92c-3.5,0-6.6,0-10.2,0c0-1-0.2-16.4-0.3-23.1c0-3.6-2.1-6.1-5.4-6.1c-3.7,0-7.9,2.8-7.9,2.8
							c0,8.9,0,17.5,0,26.4c-3.4,0-6.6,0-10,0c0-12.1,0-24.2,0-36.6c2.8-0.3,5.7-0.5,8.8-0.8c0.2,1.5,0.4,2.9,0.6,4.4
							c0.3-0.2,4-4.8,12.1-4.8c13.3,0,12.2,16.1,12.2,18.9C355.6,79.3,355.6,85.5,355.6,92z"/>
						<path fill="#FFFFFF" d="M207.4,55.2c2.9-0.2,5.7-0.5,8.8-0.8c0.2,1.7,0.4,3.3,0.6,5c3.8-3.9,6.4-5.5,9.6-5.4
							c1.1,0,2.4,0.3,3.7,0.7c-0.2,2.7-0.3,5.5-0.5,8.6c-1.2-0.1-2.4-0.2-3.5-0.2c-3.4,0-6.5,0.9-8.8,4.2c0,8.1,0,16.1,0,24.4
							c-3.3,0-6.5,0-9.9,0C207.4,79.8,207.4,67.7,207.4,55.2z"/>
					</g>
				</g>
			</g>
			<g>
				<g>
					<path fill="#FFFFFF" d="M519.2,52.8c4.3,0,8.5,0,13,0c0.6,13,1.2,25.9,1.8,39c-3.3,0-6.4,0-9.9,0c-0.2-4.3-0.6-8.6-0.7-12.9
						c-0.1-4.3,0-8.6,0-12.9c-0.3,0-0.6-0.1-0.9-0.1c-3.4,8.6-6.7,17.3-10.2,26c-3.1,0-6.2,0-9.4,0c-3.3-8.6-6.5-17.3-9.7-25.9
						c-0.1,0-0.3,0-0.4,0.1c-0.3,8.5-0.6,17-1,25.8c-3.1,0-6.1,0-9.3,0c0.6-13,1.1-25.9,1.7-38.9c4.4,0,8.6,0,13.2,0
						c3.5,9.2,7,18.5,10.7,28.4C511.9,71.3,515.6,62.1,519.2,52.8z"/>
					<path fill="#FFFFFF" d="M471,52.9c0,2.4,0,4.5,0,6.9c-4.8,0-9.5,0-14.5,0c0,2.9,0,5.6,0,8.6c4.3,0,8.7,0,13.3,0
						c0,2.5,0,4.7,0,7.2c-4.4,0-8.8,0-13.4,0c0,3.1,0,5.9,0,9c5.4,0,10.7,0,16.2,0c-0.2,2.6-0.3,4.8-0.5,7.2c-8.7,0-17.3,0-26,0
						c0-13,0-25.8,0-38.9C454.3,52.9,462.5,52.9,471,52.9z"/>
					<path fill="#FFFFFF" d="M438.6,52.9c0,1.1,0,1.9,0,2.8c-0.1,1.5-0.3,3-0.5,4.8c-3.9,0-7.8,0-11.8,0c0,10.6,0,20.9,0,31.3
						c-3.5,0-6.7,0-10.3,0c0-10.3,0-20.6,0-31.3c-4.3,0-8.3,0-12.3,0c0-2.8,0-5.1,0-7.7C415.3,52.9,426.9,52.9,438.6,52.9z"/>
				</g>
			</g>
		</g>
		<path fill="#FFFFFF" d="M396.9,41c-0.3,2.9-0.6,5.6-0.9,8.4c-2.6-0.5-5-1.1-7.5-1.3c-2.4-0.2-11.9-0.6-11.9,4.6
			c0,10.2,22.5,7.9,22.5,24.3c0,15.4-16,15.8-20.1,15.8c-4.8,0-9.6-0.8-14.3-2.6c0-2.9,0-5.8,0-8.9c2.9,0.7,22.4,6.8,22.4-3.2
			c0-8.8-21.9-7.1-21.9-25.7c0-10.7,12.2-13.3,18.9-13.3C388.3,39.1,392.6,39.8,396.9,41z"/>
	</g>
</g>
</svg>
