<?xml version="1.0" encoding="utf-8"?>
<!-- Generator: Adobe Illustrator 18.0.0, SVG Export Plug-In . SVG Version: 6.00 Build 0)  -->
<!DOCTYPE svg PUBLIC "-//W3C//DTD SVG 1.1//EN" "http://www.w3.org/Graphics/SVG/1.1/DTD/svg11.dtd">
<svg version="1.1" id="Layer_1" xmlns="http://www.w3.org/2000/svg" xmlns:xlink="http://www.w3.org/1999/xlink" x="0px" y="0px"
	 viewBox="0 0 135 154" enable-background="new 0 0 135 154" xml:space="preserve">
<g>
	<path fill="#FFFFFF" d="M67.5,154C30.3,154,0,123.8,0,86.7V10.4c0-5.3,4.4-9.7,9.7-9.7c5.4,0,9.7,4.3,9.7,9.7l-0.2,74.7
		c0,26.5,21.6,48.1,48.2,48.1c26.6,0,48.2-21.6,48.2-48.1V10.5c0-2.3-1.8-4.1-4.1-4.1c-2.3,0-4.1,1.8-4.1,4.1v75.9
		c0,21.6-17.7,39.2-39.4,39.2c-21.7,0-39.4-17.6-39.4-39.2V10.5c0-5.3,4.4-9.7,9.7-9.7s9.7,4.3,9.7,9.7v75.1c0,11,9,19.9,20,19.9
		s20-8.9,20-19.9v-82c0-1.5,1.3-2.8,2.8-2.8c1.5,0,2.8,1.3,2.8,2.8v82c0,14.1-11.5,25.5-25.6,25.5S42.6,99.6,42.6,85.5V10.5
		c0-2.3-1.8-4.1-4.1-4.1c-2.3,0-4.1,1.8-4.1,4.1v75.9c0,18.6,15.1,33.6,33.8,33.6c18.6,0,33.7-15.1,33.7-33.6V10.5
		c0-5.3,4.4-9.7,9.7-9.7c5.4,0,9.7,4.3,9.7,9.7v74.7c0,29.6-24.2,53.7-53.9,53.7c-29.7,0-53.8-24.1-53.8-53.7l0.2-74.7
		c0-2.3-1.8-4.1-4.1-4.1c-2.3,0-4.1,1.8-4.1,4.1v76.3c0,34,27.8,61.7,61.9,61.7c34.1,0,61.9-27.7,61.9-61.7V2.8
		c0-1.5,1.3-2.8,2.8-2.8c1.5,0,2.8,1.3,2.8,2.8v83.9C135,123.8,104.7,154,67.5,154z"/>
</g>
</svg>
