<svg xmlns="http://www.w3.org/2000/svg" viewBox="0 0 850 850" enable-background="new 0 0 850 850"><g fill="#fff"><path d="M850 425c0-57.4-11.2-113-33.4-165.4-21.4-50.6-52-96.1-91.1-135.1-39-39-84.5-69.7-135.1-91.1-3.1-1.3-6.1-2.6-9.2-3.8.1-.4.2-.8.2-1.2 0-2.2-1.8-4-4-4-1.6 0-3 1-3.6 2.3-47.5-17.7-97.5-26.7-148.8-26.7-57.4 0-113 11.2-165.4 33.4-50.6 21.4-96.1 52-135.1 91.1-12.1 12.1-23.4 24.8-33.8 38.1-.6-.3-1.3-.5-2-.5-2.2 0-4 1.8-4 4 0 1.1.4 2.1 1.2 2.8-21.1 27.9-38.7 58.2-52.4 90.7-22.3 52.4-33.5 108-33.5 165.4 0 57.4 11.2 113 33.4 165.4 21.4 50.6 52 96.1 91.1 135.1 11.4 11.4 23.4 22.1 35.8 32-.1.4-.2.7-.2 1.1 0 2.2 1.8 4 4 4 .7 0 1.4-.2 2-.6 28.6 22 59.9 40.3 93.4 54.5 52.5 22.3 108.1 33.5 165.5 33.5 57.4 0 113-11.2 165.4-33.4 50.6-21.4 96.1-52 135.1-91.1 30.7-30.7 56.3-65.5 76.2-103.6.3.1.7.2 1.1.2 2.2 0 4-1.8 4-4 0-1.3-.6-2.4-1.5-3.1 4-8 7.8-16.2 11.3-24.6 22.2-52.4 33.4-108 33.4-165.4zm-45.6 189.5c-.5-.2-1-.4-1.6-.4-2.2 0-4 1.8-4 4 0 1.5.8 2.7 2 3.4-19.9 38-45.3 72.6-76 103.3-38.9 38.9-84.3 69.5-134.8 90.9-52.2 22.1-107.8 33.3-165 33.3s-112.8-11.2-165-33.3c-33.4-14.1-64.5-32.3-93-54.2.7-.7 1.1-1.7 1.1-2.8 0-2.2-1.8-4-4-4-1.4 0-2.7.8-3.4 1.9-12.4-9.9-24.2-20.5-35.5-31.8-39-38.9-69.5-84.3-90.9-134.8-22.1-52.2-33.3-107.8-33.3-165s11.2-112.8 33.3-165c13.7-32.4 31.2-62.7 52.3-90.5.6.4 1.3.6 2 .6 2.2 0 4-1.8 4-4 0-1.1-.5-2.1-1.2-2.9 10.4-13.3 21.7-25.9 33.8-38 38.9-38.9 84.3-69.5 134.8-90.9 52.2-22.1 107.8-33.3 165-33.3 51.2 0 101.1 9 148.5 26.7 0 .2-.1.5-.1.7 0 2.2 1.8 4 4 4 1.4 0 2.7-.8 3.4-1.9 3.1 1.2 6.2 2.5 9.2 3.8 50.5 21.4 95.8 51.9 134.8 90.9 38.9 38.9 69.5 84.3 90.9 134.8 22.1 52.3 33.3 107.8 33.3 165s-11.2 112.8-33.3 165c-3.5 8.3-7.3 16.5-11.3 24.5zM679.6 170.4c-33.1-33.1-71.6-59-114.5-77.2-44.3-18.8-91.5-28.3-140.1-28.3s-95.8 9.5-140.2 28.3c-13.7 5.8-26.9 12.4-39.7 19.8-.7-.8-1.7-1.2-2.9-1.2-2.2 0-4 1.8-4 4 0 .4.1.8.2 1.2-24.6 14.9-47.4 32.8-68.1 53.5-33.1 33.1-59 71.6-77.2 114.5-18.7 44.2-28.2 91.4-28.2 140 0 36.1 5.3 71.4 15.6 105.3-1.1.7-1.9 2-1.9 3.4 0 2.2 1.8 4 4 4 .1 0 .2 0 .3 0 3.1 9.3 6.5 18.4 10.3 27.5 18.1 42.9 44.1 81.4 77.2 114.5 33.1 33.1 71.6 59 114.5 77.2 44.4 18.8 91.5 28.3 140.2 28.3s95.8-9.5 140.2-28.3c12.9-5.4 25.3-11.6 37.4-18.4.7.8 1.8 1.4 3 1.4 2.2 0 4-1.8 4-4 0-.5-.1-.9-.2-1.3 25.5-15.2 49-33.5 70.3-54.8 33.1-33.1 59-71.6 77.2-114.5 18.8-44.4 28.3-91.5 28.3-140.2s-9.5-95.8-28.3-140.2c-18.4-42.9-44.3-81.4-77.4-114.5zm76.3 394.4c-18.1 42.8-44 81.2-77 114.1-21.2 21.2-44.7 39.5-70.1 54.6-.7-1.1-1.9-1.8-3.3-1.8-2.2 0-4 1.8-4 4 0 .6.2 1.2.4 1.8-12 6.8-24.4 12.9-37.2 18.3-44.3 18.7-91.3 28.2-139.8 28.2s-95.5-9.5-139.8-28.2c-42.8-18.1-81.2-44-114.1-77-33-33-58.9-71.4-77-114.1-3.8-9-7.2-18.1-10.2-27.3 1.6-.5 2.7-2 2.7-3.8 0-2.2-1.8-4-4-4-.4 0-.8.1-1.2.2-10.1-33.7-15.4-68.8-15.4-104.8 0-48.5 9.5-95.5 28.2-139.8 18.1-42.8 44-81.2 77-114.1 20.6-20.6 43.2-38.4 67.8-53.3.7 1.1 2 1.9 3.4 1.9 2.2 0 4-1.8 4-4 0-.7-.2-1.4-.5-1.9 12.7-7.3 25.9-13.9 39.5-19.7 44.3-18.7 91.3-28.2 139.8-28.2s95.5 9.5 139.8 28.2c42.8 18.1 81.2 44 114.1 77 33 33 58.9 71.4 77 114.1 18.7 44.3 28.2 91.3 28.2 139.8-.1 48.5-9.6 95.5-28.3 139.8zM425 129.8c-78.8 0-153 30.7-208.7 86.4-55.8 55.8-86.5 130-86.5 208.8s30.7 153 86.4 208.7c24.1 24.1 51.7 43.6 81.7 57.9-.1.4-.2.8-.2 1.3 0 2.2 1.8 4 4 4 1.4 0 2.7-.8 3.4-1.9 37.2 16.6 77.9 25.3 119.9 25.3 78.8 0 153-30.7 208.7-86.4 55.7-55.7 86.4-129.9 86.4-208.7s-30.7-153-86.4-208.7c-55.7-56-129.9-86.7-208.7-86.7zm208 503.2c-55.6 55.6-129.4 86.2-208 86.2-41.8 0-82.3-8.7-119.5-25.2.1-.4.2-.7.2-1.1 0-2.2-1.8-4-4-4-1.4 0-2.6.7-3.4 1.8-29.8-14.2-57.3-33.6-81.4-57.7-55.6-55.6-86.2-129.4-86.2-208s30.6-152.4 86.2-208c55.6-55.6 129.4-86.2 208-86.2s152.4 30.6 208 86.2c55.6 55.6 86.2 129.4 86.2 208 .1 78.6-30.5 152.4-86.1 208zM425 194.8c-61.5 0-119.3 23.9-162.8 67.4-43.5 43.5-67.4 101.3-67.4 162.8 0 51.8 17 101 48.4 141.3-.6.7-.9 1.5-.9 2.5 0 2.2 1.8 4 4 4 .7 0 1.3-.2 1.8-.5 4.5 5.3 9.2 10.5 14.1 15.5 43.5 43.5 101.3 67.4 162.8 67.4 61.5 0 119.3-23.9 162.8-67.4 43.5-43.5 67.4-101.3 67.4-162.8 0-61.5-23.9-119.3-67.4-162.8-43.5-43.5-101.3-67.4-162.8-67.4zm162.1 392.3c-43.3 43.3-100.9 67.1-162.1 67.1s-118.8-23.8-162.1-67.1c-4.9-4.9-9.6-10.1-14-15.4.8-.7 1.4-1.8 1.4-3 0-2.2-1.8-4-4-4-.9 0-1.7.3-2.4.8-31.2-40-48.1-89-48.1-140.6 0-61.2 23.8-118.8 67.1-162.1s100.9-67.1 162.1-67.1 118.8 23.8 162.1 67.1 67.1 100.9 67.1 162.1-23.8 118.9-67.1 162.2zM425 259.7c-91.1 0-165.3 74.2-165.3 165.3s74.2 165.3 165.3 165.3 165.3-74.2 165.3-165.3-74.2-165.3-165.3-165.3zm0 329.6c-90.6 0-164.3-73.7-164.3-164.3 0-90.6 73.7-164.3 164.3-164.3 90.6 0 164.3 73.7 164.3 164.3 0 90.6-73.7 164.3-164.3 164.3zM425 324.6c-53.4 0-97.2 42-100.2 94.6-2 .2-3.7 1.9-3.7 4 0 2 1.5 3.7 3.5 3.9 1.2 54.4 45.7 98.2 100.4 98.2 55.4 0 100.4-45 100.4-100.4s-45-100.3-100.4-100.3zm0 199.8c-54.1 0-98.2-43.4-99.4-97.2 2-.3 3.5-1.9 3.5-3.9s-1.4-3.6-3.3-3.9c3-52.2 46.3-93.7 99.2-93.7 54.8 0 99.4 44.6 99.4 99.4 0 54.7-44.6 99.3-99.4 99.3z"/></g></svg>