<?xml version="1.0" encoding="utf-8"?>
<!-- Generator: Adobe Illustrator 18.1.1, SVG Export Plug-In . SVG Version: 6.00 Build 0)  -->
<svg version="1.1" id="Layer_1" xmlns="http://www.w3.org/2000/svg" xmlns:xlink="http://www.w3.org/1999/xlink" x="0px" y="0px"
	 viewBox="0 0 612 792" enable-background="new 0 0 612 792" xml:space="preserve">
<path fill="#E53225" d="M293.5,431.3c-49.6,0-89.8-44.8-89.8-99.9V218.1c0-7.9,5.8-14.5,12.9-14.5c7.1,0,12.9,6.4,12.9,14.5
	l-0.2,111c0,39.3,28.8,71.5,64.2,71.5s64.2-32,64.2-71.5v-111c0-3.4-2.4-6.1-5.5-6.1s-5.5,2.7-5.5,6.1v112.7
	c0,32.2-23.5,58.2-52.3,58.2S242,363,242,330.9V218.1c0-7.9,5.8-14.5,12.9-14.5c7.1,0,12.9,6.4,12.9,14.5v111.5
	c0,16.3,11.9,29.7,26.5,29.7c14.6,0,26.5-13.2,26.5-29.7V208c0-2.3,1.6-4.1,3.7-4.1s3.7,1.8,3.7,4.1v121.7
	c0,20.9-15.3,37.9-34.1,37.9c-18.8,0-34.1-17-34.1-37.9V218.1c0-3.4-2.4-6.1-5.5-6.1s-5.5,2.7-5.5,6.1v112.7c0,27.5,20.1,50,44.9,50
	s44.9-22.3,44.9-50V218.1c0-7.9,5.8-14.5,12.9-14.5c7.1,0,12.9,6.4,12.9,14.5v111c0,44-32.2,79.7-71.6,79.7s-71.6-35.7-71.6-79.7
	l0.2-111c0-3.4-2.4-6.1-5.5-6.1s-5.5,2.7-5.5,6.1v113.3c0,50.6,36.8,91.7,82.2,91.7s82.2-41.1,82.2-91.7V206.7
	c0-2.3,1.6-4.1,3.7-4.1s3.7,1.8,3.7,4.1v124.7C383.3,386.5,342.9,431.3,293.5,431.3z"/>
<g>
	<path fill="#E53225" d="M334.6,519.2c-8.6,0-12.8-6.3-12.8-12.6c0-14.9,21.8-14.1,24-14.3c1.1-5.7-1.4-9.1-6.9-8.6
		c-4.4,0.2-8.7,1.4-13.4,2.2c-0.2-1.9-0.6-4.5-0.9-7.1c0,0,7.9-3.8,16.6-3.8c9.5,0,15.9,4.1,15.9,12.1c0.3,5,0.3,17.9,0.3,19.3
		c0,5,5.3,5,5.8,5.2c-0.1,2.3-0.2,4.4-0.3,6.4c-1.9,0.8-3.9,1.1-5.7,1.1c-3.9,0-7.3-1.6-9.6-4.7
		C346.4,514.9,340.7,519.2,334.6,519.2z M346,499.7c-3.8,0-7.3,0-10.7,1.6c-2.2,1-3.3,2.9-3.1,4.8c0.2,2.1,1.7,3.6,4.4,4
		c3.6,0.7,6.5-0.6,9.4-2.4C346,505.2,346,502.7,346,499.7z M176.7,458.1c4.2,0,8.1,0,12.3,0c0,1.1,0,21.3,0,30.3
		c0,2.4,0.2,4.9,0.5,7.3c0.9,9.9,7.6,13.2,16.2,12.4c6.3-0.6,10-4.6,10.8-11.2c0.3-2.6,0.5-5.3,0.5-7.9c0-9.1,0-29.3,0-30.6
		c4,0,7.7,0,11.6,0c0.1,0.5,0.2,23.6,0.1,34.7c-0.1,3.2-0.6,6.5-1.5,9.6c-2.8,9.6-9.9,14.3-19.3,15.8c-5.3,0.8-10.5,0.6-15.7-1
		c-8.7-2.9-13.5-8.8-14.7-18c-0.5-3.4-0.6-6.9-0.6-10.3C176.7,479.7,176.7,459.2,176.7,458.1L176.7,458.1z M273.5,516.2
		c0-21.2,0-41.9,0-62.9c4-0.3,7.7-0.7,11.7-0.9c0,9.2,0,17.9,0,27.3c3.3-3.2,6.9-4.9,11.1-5.2c8.4-0.3,18.9,5.4,18.9,21.1
		c0,13.6-8.4,23.4-24.8,23.4C284.6,518.8,279,517.8,273.5,516.2L273.5,516.2z M285.3,487.3c0,3.8,0,7.2,0,10.7c0,3.6,0,7.1,0,11
		c2.6,0.3,5,0.8,7.3,0.8c4.9-0.1,8.4-2.9,9.7-7.7c1-3.4,0.9-7,0.1-10.5c-1.7-6.9-7.4-9.6-13.8-6.4
		C287.5,485.7,286.5,486.5,285.3,487.3L285.3,487.3z M409.5,517.8c-4,0-7.6,0-11.7,0c0-1.1-0.2-18.8-0.3-26.5c0-4.1-2.4-7-6.2-7
		c-4.2,0-9.1,3.2-9.1,3.2c0,10.2,0,20.1,0,30.3c-3.9,0-7.6,0-11.5,0c0-13.9,0-27.7,0-41.9c3.2-0.3,6.5-0.6,10.1-0.9
		c0.2,1.7,0.5,3.3,0.7,5c0.3-0.2,4.6-5.5,13.9-5.5c15.2,0,14,18.5,14,21.7C409.5,503.2,409.5,510.3,409.5,517.8L409.5,517.8z
		 M239.7,475.6c3.3-0.2,6.5-0.6,10.1-0.9c0.2,1.9,0.5,3.8,0.7,5.7c4.4-4.5,7.3-6.3,11-6.2c1.3,0,2.8,0.3,4.2,0.8
		c-0.2,3.1-0.3,6.3-0.6,9.9c-1.4-0.1-2.8-0.2-4-0.2c-3.9,0-7.4,1-10.1,4.8c0,9.3,0,18.5,0,28c-3.8,0-7.4,0-11.3,0
		C239.7,503.8,239.7,489.9,239.7,475.6L239.7,475.6z"/>
</g>
<g>
	<path fill="#E53225" d="M371.3,536.8c4.9,0,9.7,0,14.9,0c0.7,14.9,1.4,29.7,2.1,44.7c-3.8,0-7.3,0-11.3,0
		c-0.2-4.9-0.7-9.9-0.8-14.8c-0.1-4.9,0-9.9,0-14.8c-0.3,0-0.7-0.1-1-0.1c-3.9,9.9-7.7,19.8-11.7,29.8c-3.6,0-7.1,0-10.8,0
		c-3.8-9.9-7.4-19.8-11.1-29.7c-0.1,0-0.3,0-0.5,0.1c-0.3,9.7-0.7,19.5-1.1,29.6c-3.6,0-7,0-10.7,0c0.7-14.9,1.3-29.7,1.9-44.6
		c5,0,9.9,0,15.1,0c4,10.5,8,21.2,12.3,32.5C363,558,367.2,547.4,371.3,536.8L371.3,536.8z M316.1,536.9c0,2.8,0,5.2,0,7.9
		c-5.5,0-10.9,0-16.6,0c0,3.3,0,6.4,0,9.9c4.9,0,10,0,15.2,0c0,2.9,0,5.4,0,8.3c-5,0-10.1,0-15.4,0c0,3.6,0,6.8,0,10.3
		c6.2,0,12.3,0,18.6,0c-0.2,3-0.3,5.5-0.6,8.3c-10,0-19.8,0-29.8,0c0-14.9,0-29.6,0-44.6C296.9,536.9,306.3,536.9,316.1,536.9z
		 M279,536.9c0,1.3,0,2.2,0,3.2c-0.1,1.7-0.3,3.4-0.6,5.5c-4.5,0-8.9,0-13.5,0c0,12.1,0,24,0,35.9c-4,0-7.7,0-11.8,0
		c0-11.8,0-23.6,0-35.9c-4.9,0-9.5,0-14.1,0c0-3.2,0-5.8,0-8.8C252.2,536.9,265.5,536.9,279,536.9L279,536.9z"/>
</g>
<path fill="#E53225" d="M230.9,522.2c-0.3,3.3-0.7,6.4-1,9.6c-3-0.6-5.7-1.3-8.6-1.5c-2.8-0.2-13.6-0.7-13.6,5.3
	c0,11.7,25.8,9.1,25.8,27.8c0,17.6-18.3,18.1-23,18.1c-5.5,0-11-0.9-16.4-3c0-3.3,0-6.6,0-10.2c3.3,0.8,25.7,7.8,25.7-3.7
	c0-10.1-25.1-8.1-25.1-29.5c0-12.3,14-15.2,21.7-15.2C221,520,225.9,520.8,230.9,522.2z"/>
<text transform="matrix(1 0 0 1 203.7105 636)" fill="#E53225" font-family="'MyriadPro-Regular'" font-size="48">Academy</text>
</svg>
