<svg xmlns="http://www.w3.org/2000/svg" viewBox="0 0 534 128" enable-background="new 0 0 534 128"><path fill="#fff" d="M55.8 128c-30.8 0-55.8-25.1-55.8-55.9v-63.4c0-4.4 3.6-8.1 8-8.1s8 3.6 8 8.1l-.1 62.1c0 22 17.9 40 39.9 40s39.9-17.9 39.9-40v-62.1c0-1.9-1.5-3.4-3.4-3.4s-3.4 1.5-3.4 3.4v63.1c0 18-14.6 32.6-32.5 32.6s-32.6-14.6-32.6-32.6v-63.1c0-4.4 3.6-8.1 8-8.1s8 3.6 8 8.1v62.4c0 9.1 7.4 16.6 16.5 16.6s16.5-7.4 16.5-16.6v-68.1c0-1.3 1-2.3 2.3-2.3 1.3 0 2.3 1 2.3 2.3v68.1c0 11.7-9.5 21.2-21.2 21.2s-21.2-9.5-21.2-21.2v-62.4c0-1.9-1.5-3.4-3.4-3.4s-3.4 1.5-3.4 3.4v63.1c0 15.4 12.5 28 27.9 28 15.4 0 27.9-12.5 27.9-28v-63.1c0-4.4 3.6-8.1 8-8.1s8 3.6 8 8.1v62.1c0 24.6-20 44.6-44.5 44.6s-44.5-20-44.5-44.6l.1-62.1c0-1.9-1.5-3.4-3.4-3.4s-3.4 1.5-3.4 3.4v63.4c0 28.3 22.9 51.3 51.1 51.3 28.2 0 51.1-23 51.1-51.3v-69.8c0-1.3 1-2.3 2.3-2.3 1.3 0 2.3 1 2.3 2.3v69.8c.5 30.8-24.6 55.9-55.3 55.9z"/><g fill="#fff"><path d="M290.2 93.2c-7.5 0-11.2-5.5-11.2-11 0-13 19-12.3 20.9-12.5 1-5-1.2-7.9-6-7.5-3.8.2-7.6 1.2-11.7 1.9-.2-1.7-.5-3.9-.8-6.2 0 0 6.9-3.3 14.5-3.3 8.3 0 13.9 3.6 13.9 10.6.3 4.4.3 15.6.3 16.8 0 4.4 4.6 4.4 5.1 4.5-.1 2-.2 3.8-.3 5.6-1.7.7-3.4 1-5 1-3.4 0-6.4-1.4-8.4-4.1-1 .5-6 4.2-11.3 4.2zm10-17c-3.3 0-6.4 0-9.3 1.4-1.9.9-2.9 2.5-2.7 4.2.2 1.8 1.5 3.1 3.8 3.5 3.1.6 5.7-.5 8.2-2.1 0-2.2 0-4.4 0-7zM152.4 39.9c3.7 0 7.1 0 10.7 0 0 1 0 18.6 0 26.4 0 2.1.2 4.3.4 6.4.8 8.6 6.6 11.5 14.1 10.8 5.5-.5 8.7-4 9.4-9.8.3-2.3.4-4.6.4-6.9 0-7.9 0-25.6 0-26.7 3.5 0 6.7 0 10.1 0 .1.4.2 20.6.1 30.3-.1 2.8-.5 5.7-1.3 8.4-2.4 8.4-8.6 12.5-16.8 13.8-4.6.7-9.2.5-13.7-.9-7.6-2.5-11.8-7.7-12.8-15.7-.4-3-.5-6-.5-9-.1-8.2-.1-26.1-.1-27.1zM236.9 90.6c0-18.5 0-36.6 0-54.9 3.5-.3 6.7-.6 10.2-.8 0 8 0 15.6 0 23.8 2.9-2.8 6-4.3 9.7-4.5 7.3-.3 16.5 4.7 16.5 18.4 0 11.9-7.3 20.4-21.6 20.4-5.1-.1-10-1-14.8-2.4zm10.3-25.2c0 3.3 0 6.3 0 9.3 0 3.1 0 6.2 0 9.6 2.3.3 4.4.7 6.4.7 4.3-.1 7.3-2.5 8.5-6.7.9-3 .8-6.1.1-9.2-1.5-6-6.5-8.4-12-5.6-1.1.5-2 1.2-3 1.9zM355.6 92c-3.5 0-6.6 0-10.2 0 0-1-.2-16.4-.3-23.1 0-3.6-2.1-6.1-5.4-6.1-3.7 0-7.9 2.8-7.9 2.8 0 8.9 0 17.5 0 26.4-3.4 0-6.6 0-10 0 0-12.1 0-24.2 0-36.6 2.8-.3 5.7-.5 8.8-.8.2 1.5.4 2.9.6 4.4.3-.2 4-4.8 12.1-4.8 13.3 0 12.2 16.1 12.2 18.9.1 6.2.1 12.4.1 18.9zM207.4 55.2c2.9-.2 5.7-.5 8.8-.8.2 1.7.4 3.3.6 5 3.8-3.9 6.4-5.5 9.6-5.4 1.1 0 2.4.3 3.7.7-.2 2.7-.3 5.5-.5 8.6-1.2-.1-2.4-.2-3.5-.2-3.4 0-6.5.9-8.8 4.2 0 8.1 0 16.1 0 24.4-3.3 0-6.5 0-9.9 0 0-11.9 0-24 0-36.5z"/></g><g fill="#fff"><path d="M519.2 52.8c4.3 0 8.5 0 13 0 .6 13 1.2 25.9 1.8 39-3.3 0-6.4 0-9.9 0-.2-4.3-.6-8.6-.7-12.9-.1-4.3 0-8.6 0-12.9-.3 0-.6-.1-.9-.1-3.4 8.6-6.7 17.3-10.2 26-3.1 0-6.2 0-9.4 0-3.3-8.6-6.5-17.3-9.7-25.9-.1 0-.3 0-.4.1-.3 8.5-.6 17-1 25.8-3.1 0-6.1 0-9.3 0 .6-13 1.1-25.9 1.7-38.9 4.4 0 8.6 0 13.2 0 3.5 9.2 7 18.5 10.7 28.4 3.8-10.1 7.5-19.3 11.1-28.6zM471 52.9c0 2.4 0 4.5 0 6.9-4.8 0-9.5 0-14.5 0 0 2.9 0 5.6 0 8.6 4.3 0 8.7 0 13.3 0 0 2.5 0 4.7 0 7.2-4.4 0-8.8 0-13.4 0 0 3.1 0 5.9 0 9 5.4 0 10.7 0 16.2 0-.2 2.6-.3 4.8-.5 7.2-8.7 0-17.3 0-26 0 0-13 0-25.8 0-38.9 8.2 0 16.4 0 24.9 0zM438.6 52.9c0 1.1 0 1.9 0 2.8-.1 1.5-.3 3-.5 4.8-3.9 0-7.8 0-11.8 0 0 10.6 0 20.9 0 31.3-3.5 0-6.7 0-10.3 0 0-10.3 0-20.6 0-31.3-4.3 0-8.3 0-12.3 0 0-2.8 0-5.1 0-7.7 11.6.1 23.2.1 34.9.1z"/></g><path fill="#fff" d="M396.9 41c-.3 2.9-.6 5.6-.9 8.4-2.6-.5-5-1.1-7.5-1.3-2.4-.2-11.9-.6-11.9 4.6 0 10.2 22.5 7.9 22.5 24.3 0 15.4-16 15.8-20.1 15.8-4.8 0-9.6-.8-14.3-2.6 0-2.9 0-5.8 0-8.9 2.9.7 22.4 6.8 22.4-3.2 0-8.8-21.9-7.1-21.9-25.7 0-10.7 12.2-13.3 18.9-13.3 4.2 0 8.5.7 12.8 1.9z"/></svg>