<svg xmlns="http://www.w3.org/2000/svg" viewBox="0 0 135 154" enable-background="new 0 0 135 154"><path fill="#fff" d="M67.5 154c-37.2 0-67.5-30.2-67.5-67.3v-76.3c0-5.3 4.4-9.7 9.7-9.7 5.4 0 9.7 4.3 9.7 9.7l-.2 74.7c0 26.5 21.6 48.1 48.2 48.1s48.2-21.6 48.2-48.1v-74.6c0-2.3-1.8-4.1-4.1-4.1s-4.1 1.8-4.1 4.1v75.9c0 21.6-17.7 39.2-39.4 39.2s-39.4-17.6-39.4-39.2v-75.9c0-5.3 4.4-9.7 9.7-9.7s9.7 4.3 9.7 9.7v75.1c0 11 9 19.9 20 19.9s20-8.9 20-19.9v-82c0-1.5 1.3-2.8 2.8-2.8 1.5 0 2.8 1.3 2.8 2.8v82c0 14.1-11.5 25.5-25.6 25.5s-25.4-11.5-25.4-25.6v-75c0-2.3-1.8-4.1-4.1-4.1s-4.1 1.8-4.1 4.1v75.9c0 18.6 15.1 33.6 33.8 33.6 18.6 0 33.7-15.1 33.7-33.6v-75.9c0-5.3 4.4-9.7 9.7-9.7 5.4 0 9.7 4.3 9.7 9.7v74.7c0 29.6-24.2 53.7-53.9 53.7s-53.8-24.1-53.8-53.7l.2-74.7c0-2.3-1.8-4.1-4.1-4.1s-4.1 1.8-4.1 4.1v76.3c0 34 27.8 61.7 61.9 61.7 34.1 0 61.9-27.7 61.9-61.7v-84c0-1.5 1.3-2.8 2.8-2.8 1.5 0 2.8 1.3 2.8 2.8v83.9c0 37.1-30.3 67.3-67.5 67.3z"/></svg>